PathFileType	4	(X/Y/Z)	c:/Users/goper/Files/vsCode/490R/osim_files/A04/A04_SSWS_05.trc
DataRate	CameraRate	NumFrames	NumMarkers	Units                	OrigDataRate	OrigDataStartFrame	OrigNumFrames
120.00	120.00	10	36	mm	120.0	910	1212
                Frame#	Time	LPSIS			LASIS			LTH1			LTH2			LTH3			LTH4			LLFE			LMFE			LSH1			LSH2			LSH3			LSH4			LLMAL			LMMAL			LCAL			LMTP5			LTOE			LMTP1			RPSIS			RASIS			RTH1			RTH2			RTH3			RTH4			RLFE			RMFE			RSH1			RSH2			RSH3			RSH4			RLMAL			RMMAL			RCAL			RMTP1			RTOE			RMTP5		
		X1	Y1	Z1	X2	Y2	Z2	X3	Y3	Z3	X4	Y4	Z4	X5	Y5	Z5	X6	Y6	Z6	X7	Y7	Z7	X8	Y8	Z8	X9	Y9	Z9	X10	Y10	Z10	X11	Y11	Z11	X12	Y12	Z12	X13	Y13	Z13	X14	Y14	Z14	X15	Y15	Z15	X16	Y16	Z16	X17	Y17	Z17	X18	Y18	Z18	X19	Y19	Z19	X20	Y20	Z20	X21	Y21	Z21	X22	Y22	Z22	X23	Y23	Z23	X24	Y24	Z24	X25	Y25	Z25	X26	Y26	Z26	X27	Y27	Z27	X28	Y28	Z28	X29	Y29	Z29	X30	Y30	Z30	X31	Y31	Z31	X32	Y32	Z32	X33	Y33	Z33	X34	Y34	Z34	X35	Y35	Z35	X36	Y36	Z36

910	7.57500	-3039.78564	1079.12415	258.17435	-3263.96387	1050.21484	335.94211	0.00000	0.00000	0.00000	-3346.32153	680.55786	400.70709	-3382.11401	745.85437	398.72427	-3393.58057	703.21381	400.42215	-3407.39844	584.45868	392.08212	-3430.14502	584.45294	253.64032	-3331.44067	511.82843	391.20099	-3315.90942	469.66977	386.96240	-3384.96851	484.76971	379.42700	-3361.19189	447.86670	375.62317	-3162.00488	235.89987	334.85248	-3186.01660	226.68156	251.07550	-3090.84790	239.08347	274.80316	-3243.01953	110.86855	372.57697	-3296.35376	98.02741	315.03632	-3274.32251	95.08464	268.66992	-3035.35962	1064.56531	152.61430	0.00000	0.00000	0.00000	-3156.40381	734.08398	30.00227	-3163.98145	692.75806	31.44371	-3218.39453	739.11908	20.72515	0.00000	0.00000	0.00000	0.00000	0.00000	0.00000	-3227.42261	555.00470	171.45815	-3148.80322	348.81610	59.98386	0.00000	0.00000	0.00000	-3210.95850	343.10760	58.59394	-3203.03320	296.34238	63.25906	-3161.08154	106.81287	65.49413	-3181.51782	116.10013	200.23180	-3086.96899	66.37627	140.36391	-3311.11450	64.80073	188.05090	-3336.88086	86.42372	141.93188	-3305.35791	57.13279	67.91401
911	7.58333	-3047.00708	1079.84131	257.81061	-3275.38599	1051.89355	336.24246	0.00000	0.00000	0.00000	-3356.89136	681.68695	399.07138	-3389.29614	746.44556	396.45035	-3405.89478	704.62738	398.82077	-3419.82812	587.51904	390.62610	-3440.55347	587.18402	251.82243	-3345.78149	511.46198	390.63889	-3332.09839	468.65900	385.77200	-3400.56030	486.34616	377.81418	-3380.20386	449.36505	374.78934	-3187.21411	228.65581	334.03207	-3211.22559	220.53148	250.10970	-3115.48950	229.22139	274.19318	-3273.55933	107.48196	371.22104	-3325.31860	95.47944	313.03732	-3304.80444	92.57899	267.33975	-3043.75439	1064.87195	152.44827	0.00000	0.00000	0.00000	-3161.25098	734.71149	29.72208	-3164.39819	694.05969	30.60875	-3223.13672	739.10236	20.52176	0.00000	0.00000	0.00000	0.00000	0.00000	0.00000	0.00000	0.00000	0.00000	-3147.11646	349.92859	60.84378	-3148.15015	302.62796	68.07102	-3211.87305	343.05365	58.61206	-3203.91260	296.37323	63.30373	0.00000	0.00000	0.00000	-3181.70483	116.41763	200.04514	-3086.97803	66.64441	140.38023	-3311.18848	64.59942	188.09486	-3336.94043	86.12335	141.96542	-3305.39380	57.00621	67.93121
912	7.59167	-3056.50879	1079.73389	257.77203	-3282.53320	1051.66406	335.47437	-3346.45972	722.40033	397.12534	-3366.83984	682.42273	397.48883	-3401.29224	748.51184	395.80594	-3413.93530	706.42090	396.92340	-3429.95435	588.86780	388.80695	-3450.48389	589.55194	249.98878	-3359.93286	510.43399	389.20798	-3346.44360	467.75833	383.67273	-3415.46313	487.54782	376.15997	-3394.61450	448.80954	372.42966	-3212.72363	221.36000	333.13293	-3236.66089	214.20732	249.13596	-3140.69653	219.13370	273.50345	-3304.54468	104.06780	370.88757	-3356.00537	93.83183	311.68088	-3339.33301	92.10909	267.49637	-3051.36279	1065.33484	152.10297	0.00000	0.00000	0.00000	-3165.46460	736.33856	29.03630	-3172.84082	693.52222	31.03535	-3228.09937	739.09070	20.31500	0.00000	0.00000	0.00000	0.00000	0.00000	0.00000	-3232.27930	554.50653	171.24071	-3149.00952	349.81924	60.27768	-3148.04517	303.92294	69.65702	-3212.96411	342.97879	58.59580	-3204.88623	296.36908	63.29957	0.00000	0.00000	0.00000	-3181.98145	116.47929	200.02869	-3087.10181	66.87881	140.40550	-3310.09912	63.96820	187.56252	-3335.60840	85.23589	141.36699	-3305.48340	56.91588	67.98454
913	7.60000	-3064.98511	1079.73438	257.56470	-3290.93091	1051.75659	335.00430	0.00000	0.00000	0.00000	-3376.28979	682.79730	396.02994	-3410.33569	749.21667	394.31253	-3425.40503	706.89020	395.23083	-3439.90869	590.31201	386.83408	-3459.90430	591.47223	248.18176	-3372.08838	508.49564	387.14743	-3361.71460	466.38446	382.01730	-3429.96655	488.49829	374.49600	-3410.58521	448.89175	370.85248	-3237.52905	213.88753	331.78351	-3262.67944	207.87035	248.04318	-3166.14136	208.92885	272.70312	-3335.47241	101.11144	369.31693	-3389.02466	93.51840	311.20285	-3370.30005	89.92332	266.21283	-3060.71533	1064.92249	152.00256	0.00000	0.00000	0.00000	-3170.10938	736.98529	28.49627	-3176.97852	694.47534	30.48400	-3233.28003	739.00348	20.07296	0.00000	0.00000	0.00000	0.00000	0.00000	0.00000	-3235.09399	553.93018	171.60413	-3152.05640	349.34430	60.09019	-3150.67310	302.80936	68.37364	-3214.11353	342.91669	58.57590	-3205.87207	296.34464	63.20891	0.00000	0.00000	0.00000	-3182.32544	116.56044	200.01488	-3086.67212	67.26030	140.63852	-3310.23535	63.76122	187.61438	-3335.74023	84.99625	141.42076	-3305.56934	56.80285	67.98468
914	7.60833	-3072.32861	1079.85071	257.30695	-3299.42700	1051.56042	334.64270	0.00000	0.00000	0.00000	-3385.54395	682.47729	394.87027	-3419.03223	749.48438	392.81247	-3432.76514	707.71753	393.35770	-3449.66431	591.57349	385.40396	-3468.66821	592.89697	246.39052	-3387.12427	507.42810	386.26328	-3376.55542	464.04132	380.39682	-3444.04126	489.34250	372.90887	-3426.43311	448.96063	369.30283	-3263.68311	206.53264	330.74515	-3288.53735	201.30128	246.83186	-3191.80298	198.54828	271.69418	-3366.28564	97.68660	368.58011	-3420.02026	92.63258	309.87546	-3401.34399	88.10193	264.85654	-3069.10547	1064.71082	151.81126	0.00000	0.00000	0.00000	0.00000	0.00000	0.00000	-3181.49219	694.90399	29.97943	-3238.49805	738.83368	19.79817	0.00000	0.00000	0.00000	0.00000	0.00000	0.00000	-3237.68457	553.53015	171.41713	-3153.60010	349.44977	60.07205	0.00000	0.00000	0.00000	-3215.36938	342.88095	58.54262	-3206.83789	296.29587	63.18544	-3162.03882	107.28551	65.66354	-3182.60669	116.62151	199.95804	-3086.80371	67.49334	140.65671	-3310.32007	63.48104	187.64380	-3335.81543	84.71035	141.45517	-3305.61450	56.67382	68.00645
915	7.61667	-3080.73560	1079.44470	257.11401	-3307.93091	1051.23132	334.27515	-3373.88379	721.67279	393.96774	-3393.90210	682.37146	393.05716	-3427.32666	749.28076	391.35760	-3441.60474	707.80811	391.58008	-3458.56494	592.29651	383.68765	-3476.75513	593.85754	244.59103	-3398.30591	504.74884	384.10760	-3393.37720	461.71130	380.01477	-3457.29297	489.70776	371.22458	-3441.71729	448.72916	367.70877	-3289.86572	199.08806	329.64526	-3314.93530	195.02139	245.74911	-3219.10254	187.45850	270.67419	-3399.39331	95.95778	368.20233	-3449.61035	91.49815	307.98792	-3432.28345	86.45309	263.48618	-3076.79810	1064.65552	151.55942	0.00000	0.00000	0.00000	0.00000	0.00000	0.00000	-3186.35791	695.25580	29.49940	-3243.81616	738.57916	19.54132	0.00000	0.00000	0.00000	0.00000	0.00000	0.00000	-3240.48047	553.25433	171.17836	-3155.50317	349.28427	59.79123	-3150.97705	304.37491	69.45223	-3218.08643	342.57739	58.54142	-3207.12061	296.27396	63.14985	-3162.32642	107.42807	65.72485	-3183.65283	116.40991	200.03737	-3089.17822	66.86454	140.55795	-3314.57324	66.74137	187.84451	-3335.98389	84.47618	141.50594	-3305.70850	56.62260	68.01833
916	7.62500	-3090.27734	1078.58801	257.04208	-3316.41895	1050.61267	333.97565	0.00000	0.00000	0.00000	-3402.29224	681.69714	391.67822	-3435.23218	748.68274	389.96527	-3449.94800	707.29291	389.82950	-3466.73584	592.61194	381.94516	-3484.47192	594.50537	242.87306	-3412.21851	502.93805	383.17426	-3408.12598	459.52533	378.73679	-3470.41919	490.11520	369.69519	-3456.57202	448.40460	366.18005	-3316.42651	191.93945	328.54758	-3341.52344	188.94078	244.63708	-3245.92236	177.06778	269.62784	-3428.58911	92.94149	366.27777	-3480.87915	91.72382	306.82611	-3461.16895	84.47021	261.22098	-3085.47632	1064.02881	151.41270	0.00000	0.00000	0.00000	-3186.30347	737.80109	26.84316	-3191.50024	695.52899	28.98865	-3249.24365	738.27728	19.31215	0.00000	0.00000	0.00000	0.00000	0.00000	0.00000	-3243.10522	552.92249	170.95659	-3153.02148	350.89005	59.79874	-3151.98389	304.41916	69.46705	-3218.24951	342.57642	58.38266	-3208.10889	296.17578	63.03031	-3162.52466	107.50422	65.72783	-3183.99023	116.47849	199.97491	-3087.55615	67.36887	140.45506	0.00000	0.00000	0.00000	-3338.79932	86.03620	141.72670	-3305.74194	56.49311	68.00375
917	7.63333	-3098.80249	1077.79199	256.92596	-3322.95386	1049.18726	333.14737	0.00000	0.00000	0.00000	-3411.24561	680.47607	389.55283	-3440.99292	747.04688	388.03424	-3458.31226	706.48798	388.34009	-3475.17993	593.23987	380.25687	-3491.36426	594.56171	241.08054	-3424.02319	500.15167	381.58179	-3422.33130	456.03870	375.84827	0.00000	0.00000	0.00000	-3470.95459	447.87344	364.61923	-3343.05371	184.98936	327.30042	-3367.67578	182.85004	243.59448	-3270.95020	167.48895	268.15036	-3459.76025	91.50697	365.14072	-3512.06714	92.70300	305.71075	-3492.67236	84.38638	260.07355	-3094.94238	1062.99829	151.24936	0.00000	0.00000	0.00000	0.00000	0.00000	0.00000	-3196.19653	695.92560	28.49619	-3254.59912	737.87616	19.11368	0.00000	0.00000	0.00000	0.00000	0.00000	0.00000	-3245.72144	552.63232	170.80612	-3155.22412	350.43250	60.05830	-3153.09204	304.57648	69.46304	-3219.34644	342.45731	58.24461	-3209.17944	296.12936	62.91387	-3162.78174	107.61111	65.71629	-3184.09180	116.60482	200.00262	-3088.63086	67.70956	140.57123	0.00000	0.00000	0.00000	-3334.63672	82.63343	141.48520	-3305.84668	56.42987	68.03407
918	7.64167	-3106.30273	1077.18213	256.68198	-3331.49243	1048.18445	333.00183	-3396.99146	716.97986	387.75293	-3419.10327	679.02356	388.16223	0.00000	0.00000	0.00000	-3466.05151	705.26416	386.76901	-3481.65454	591.80389	378.49988	-3498.14136	594.11426	239.19472	-3434.61597	496.84506	379.40262	-3435.67969	454.60696	375.21359	0.00000	0.00000	0.00000	-3485.00830	447.16849	362.99924	-3369.67212	178.42819	326.09885	-3394.50317	177.49034	242.32222	-3299.93628	157.06239	266.77005	-3490.75806	90.72729	364.01764	-3543.02930	94.37433	304.64606	-3523.94116	84.97644	258.95172	-3103.59644	1062.16565	151.08359	0.00000	0.00000	0.00000	-3196.66162	739.03412	25.45087	-3201.07690	696.17249	28.04880	-3260.16138	737.48120	18.90995	0.00000	0.00000	0.00000	0.00000	0.00000	0.00000	-3248.39380	552.35724	170.69145	-3155.65771	350.77277	60.60541	-3154.18481	304.82513	69.32860	-3220.75391	342.36505	58.12600	-3210.26294	296.00742	62.81543	-3163.18091	107.81286	65.71862	-3184.38672	116.69189	199.92273	-3087.91211	68.25989	140.45897	0.00000	0.00000	0.00000	-3335.79785	83.81876	141.55373	-3305.90161	56.28999	68.05218
919	7.65000	-3114.77661	1076.08752	256.52261	-3339.94385	1046.99182	332.92172	-3400.29468	713.50677	385.37213	-3425.99878	676.76184	386.54626	0.00000	0.00000	0.00000	-3473.65796	703.84497	385.38605	-3488.75171	590.52863	376.58554	-3505.12085	593.17688	237.30217	-3446.32104	493.59390	377.62314	-3446.79736	449.62009	372.36517	0.00000	0.00000	0.00000	-3499.00317	446.34375	361.36081	-3396.11572	172.25435	324.79684	-3420.98096	172.44829	241.00827	-3327.47534	147.60442	265.42596	-3521.16064	90.42033	362.83163	-3573.33154	96.47122	303.48660	-3554.89380	86.28372	257.86829	-3111.47510	1061.55273	150.79671	0.00000	0.00000	0.00000	0.00000	0.00000	0.00000	-3206.15283	696.72852	27.56774	-3265.76514	737.03998	18.70475	0.00000	0.00000	0.00000	0.00000	0.00000	0.00000	-3250.92017	552.03198	170.61125	-3157.80469	350.74423	59.81140	-3155.82446	304.50958	69.66188	-3222.18848	342.24438	57.98922	-3211.32861	295.99460	62.64222	-3163.43726	107.91021	65.71353	-3184.71631	116.79748	199.82722	-3087.99365	68.60058	140.44275	0.00000	0.00000	0.00000	-3337.83936	84.12302	142.31609	-3305.96729	56.18291	68.04812
